<?xml version="1.0" standalone="no"?>
<!DOCTYPE svg PUBLIC "-//W3C//DTD SVG 20010904//EN" "http://www.w3.org/TR/2001/REC-SVG-20010904/DTD/svg10.dtd">
<svg version="1.0" xmlns="http://www.w3.org/2000/svg"  viewBox="0 0 728.000000 980.000000" preserveAspectRatio="xMidYMid meet">
	<g transform="translate(0.000000,980.000000) scale(0.100000,-0.100000)" fill="#ffffff" stroke="none">
		<path d="M6200 8984 c-580 -443 -1141 -870 -1247 -950 l-192 -146 -45 37 -46
37 0 87 c0 179 -50 379 -135 538 -125 236 -368 471 -630 612 -120 64 -350 159
-356 147 -14 -24 -79 -347 -93 -461 -26 -202 -38 -495 -31 -730 l7 -220 -78
-40 c-104 -53 -304 -187 -423 -282 -451 -360 -845 -964 -1021 -1567 -40 -140
-41 -155 -3 -156 6 0 39 53 73 117 246 464 620 925 968 1193 274 210 410 291
706 414 l171 72 2 69 c12 389 45 920 58 933 9 9 152 -107 214 -174 153 -163
242 -354 276 -588 12 -82 18 -101 37 -114 73 -52 487 -414 823 -721 241 -221
389 -371 577 -587 369 -423 607 -738 782 -1036 l57 -97 -46 -173 c-49 -183
-90 -311 -124 -392 -17 -38 -25 -47 -39 -41 -9 3 -70 22 -135 40 -152 44 -246
57 -309 44 -82 -18 -149 -103 -182 -231 -15 -59 -36 -78 -87 -78 -41 0 -75 28
-115 96 -38 64 -84 199 -100 293 -27 157 -93 261 -201 319 -92 48 -161 56
-317 36 -278 -35 -549 10 -786 132 -149 76 -234 185 -330 426 -59 148 -84 254
-105 453 -9 83 -19 180 -23 217 l-7 67 -169 -65 c-309 -118 -463 -215 -689
-434 -410 -397 -642 -791 -755 -1280 -25 -108 -26 -130 -26 -350 1 -129 5
-262 10 -295 8 -55 11 -60 34 -60 25 0 25 2 41 130 65 528 355 1017 829 1400
107 86 415 305 429 305 3 0 20 -26 36 -58 120 -229 221 -329 561 -552 297
-195 558 -279 924 -299 197 -10 210 -19 210 -139 0 -79 21 -211 51 -322 60
-222 200 -379 388 -434 119 -35 288 -13 424 55 75 38 217 138 217 153 -1 6 -9
50 -18 98 -15 72 -26 99 -66 156 -26 38 -60 75 -74 82 -22 11 -24 14 -9 18 36
8 89 -45 209 -207 35 -47 95 -113 134 -147 l70 -63 95 73 c107 83 164 154 220
271 83 175 120 364 125 627 l3 186 -98 144 c-249 368 -523 697 -966 1158 -386
401 -660 695 -659 706 1 8 1860 2158 2017 2332 11 12 19 22 16 21 -2 0 -479
-362 -1059 -805z" />
		<path d="M1900 7868 c-184 -17 -433 -77 -636 -152 -503 -188 -933 -556 -1149
-987 -44 -86 -108 -276 -101 -295 10 -25 43 -15 72 24 97 128 383 387 551 499
260 174 606 325 923 404 85 22 161 39 169 39 8 0 -19 -31 -60 -69 -95 -88
-318 -330 -464 -506 -340 -408 -630 -852 -801 -1225 -240 -525 -357 -1013
-371 -1552 l-6 -216 79 -6 c510 -40 968 -204 1457 -520 418 -271 792 -631
1115 -1075 369 -506 587 -903 948 -1723 120 -274 221 -498 224 -498 3 0 26 38
51 83 26 45 95 165 153 267 158 275 246 500 314 800 60 262 67 337 67 670 0
245 -4 328 -18 420 -49 308 -114 516 -258 820 -89 188 -186 468 -253 730 -83
326 -113 558 -96 739 11 119 22 166 57 239 24 50 24 55 9 70 -16 16 -19 15
-46 -18 -68 -82 -120 -211 -147 -367 -23 -133 -23 -495 1 -678 37 -294 112
-621 193 -854 61 -175 101 -331 134 -531 19 -112 23 -174 23 -365 0 -307 -31
-529 -107 -765 l-34 -105 -13 35 c-18 50 -247 496 -312 610 -64 111 -231 379
-291 465 -22 33 -115 154 -206 269 -125 159 -219 263 -386 431 -307 309 -567
515 -900 712 -404 240 -942 423 -1320 449 -92 7 -97 8 -107 33 -15 40 -3 544
16 666 63 396 174 717 374 1082 261 474 618 871 1128 1254 240 180 409 283
847 520 137 74 243 135 235 136 -7 2 -175 14 -372 28 -371 26 -522 29 -686 13z" />
		<path d="M4630 7128 c0 -69 67 -291 117 -392 57 -114 185 -216 270 -216 64 0
133 56 133 107 0 65 -118 219 -262 340 -91 78 -235 183 -249 183 -5 0 -9 -10
-9 -22z" />
		
	</g>
</svg>
