<svg xmlns="http://www.w3.org/2000/svg" xmlns:xlink="http://www.w3.org/1999/xlink" version="1.0" viewBox="0 0 614.764 457.087">
	<defs>
		<linearGradient id="e">
			<stop offset="0" stop-color="#211c1c" />
			<stop offset="1" stop-color="#8f8e9d" />
		</linearGradient>
		<linearGradient id="h">
			<stop offset="0" stop-color="#fbfbfb" stop-opacity=".02" />
			<stop offset=".458" stop-color="#fbfbfb" />
			<stop offset=".892" stop-color="#fbfbfb" />
			<stop offset="1" stop-color="#fbfbfb" stop-opacity="0" />
		</linearGradient>
		<linearGradient id="g">
			<stop offset="0" stop-color="#fff" />
			<stop offset=".5" stop-color="#f55fee" stop-opacity=".498" />
			<stop offset="1" stop-color="#f90606" stop-opacity=".857" />
		</linearGradient>
		<linearGradient id="f">
			<stop offset="0" />
			<stop offset="1" stop-opacity="0" />
		</linearGradient>
		<linearGradient id="c">
			<stop offset="0" />
			<stop offset="1" stop-opacity="0" />
		</linearGradient>
		<linearGradient id="b">
			<stop offset="0" stop-color="#211c1c" />
			<stop offset="1" stop-color="#49485a" />
		</linearGradient>
		<linearGradient id="d">
			<stop offset="0" stop-color="#8887a8" />
			<stop offset=".541" stop-color="#cac5c5" />
			<stop offset="1" stop-color="#e1d8d8" />
		</linearGradient>
		<linearGradient id="a">
			<stop offset="0" stop-color="#b3b3b3" />
			<stop offset="1" stop-color="#e1d8d8" />
		</linearGradient>
		<linearGradient xlink:href="#a" id="i" x1="458.028" x2="796.234" y1="301.524" y2="301.524" gradientTransform="translate(-160.163 -62.436)" gradientUnits="userSpaceOnUse" />
		<linearGradient xlink:href="#b" id="j" x1="458.528" x2="795.734" y1="301.524" y2="301.524" gradientTransform="translate(-160.163 -62.436)" gradientUnits="userSpaceOnUse" />
		<linearGradient xlink:href="#a" id="k" x1="276.591" x2="523.171" y1="358.253" y2="358.253" gradientTransform="translate(-160.163 -62.436)" gradientUnits="userSpaceOnUse" />
		<linearGradient xlink:href="#c" id="l" x1="277.091" x2="522.671" y1="358.253" y2="358.253" gradientTransform="translate(-160.163 -62.436)" gradientUnits="userSpaceOnUse" />
		<linearGradient xlink:href="#a" id="m" x1="237.589" x2="326.03" y1="381.506" y2="427.265" gradientTransform="translate(-160.163 -62.436)" gradientUnits="userSpaceOnUse" />
		<linearGradient xlink:href="#b" id="n" x1="237.589" x2="346.511" y1="381.506" y2="273.124" gradientTransform="translate(-160.163 -62.436)" gradientUnits="userSpaceOnUse" />
		<linearGradient xlink:href="#c" id="o" x1="738.399" x2="702.465" y1="380.365" y2="409.191" gradientTransform="translate(-160.163 -62.436)" gradientUnits="userSpaceOnUse" />
		<linearGradient xlink:href="#d" id="s" x1="775.881" x2="783.835" y1="243.041" y2="470.89" gradientTransform="translate(-160.163 -62.436)" gradientUnits="userSpaceOnUse" />
		<linearGradient xlink:href="#e" id="t" x1="254.191" x2="261.038" y1="311.345" y2="311.251" gradientTransform="translate(-160.163 -62.436)" gradientUnits="userSpaceOnUse" />
		<linearGradient xlink:href="#f" id="u" x1="250.716" x2="267.797" y1="312.775" y2="317.453" gradientTransform="translate(-160.163 -62.436)" gradientUnits="userSpaceOnUse" />
		<linearGradient xlink:href="#e" id="v" x1="574.044" x2="579.454" y1="210.549" y2="205.871" gradientTransform="translate(-160.163 -62.436)" gradientUnits="userSpaceOnUse" />
		<linearGradient xlink:href="#b" id="w" x1="790.493" x2="799.128" y1="330.374" y2="328.619" gradientTransform="translate(-160.163 -62.436)" gradientUnits="userSpaceOnUse" />
		<linearGradient xlink:href="#b" id="x" x1="234.119" x2="418.81" y1="498.335" y2="568.642" gradientTransform="matrix(1.00873 0 0 .99995 -167.274 -62.412)" gradientUnits="userSpaceOnUse" />
		<linearGradient xlink:href="#d" id="y" x1="234.914" x2="814.417" y1="498.335" y2="498.335" gradientTransform="matrix(1.00873 0 0 .99995 -167.274 -62.412)" gradientUnits="userSpaceOnUse" />
		<linearGradient xlink:href="#a" id="z" x1="89.97" x2="225.126" y1="474.999" y2="474.999" gradientTransform="translate(125.03 11.49)" gradientUnits="userSpaceOnUse" />
		<linearGradient xlink:href="#d" id="A" x1="227.171" x2="228.999" y1="418.442" y2="549.656" gradientTransform="translate(0 -4.98)" gradientUnits="userSpaceOnUse" />
		<linearGradient xlink:href="#b" id="B" x1="267.958" x2="668.662" y1="492.335" y2="562.642" gradientTransform="matrix(1.00433 0 0 .99998 -163.71 -62.424)" gradientUnits="userSpaceOnUse" />
		<linearGradient xlink:href="#d" id="C" x1="526.925" x2="819.73" y1="582.975" y2="492.335" gradientTransform="matrix(1.00433 0 0 .99998 -163.71 -62.424)" gradientUnits="userSpaceOnUse" />
		<linearGradient xlink:href="#g" id="D" x1="805.219" x2="579.391" y1="472.809" y2="518.975" gradientUnits="userSpaceOnUse" />
		<linearGradient xlink:href="#h" id="F" x1="420.557" x2="792.677" y1="538.738" y2="538.738" gradientUnits="userSpaceOnUse" />
		<linearGradient xlink:href="#h" id="J" x1="331.664" x2="341.946" y1="386.059" y2="386.059" gradientTransform="translate(-160.533 -62.807)" gradientUnits="userSpaceOnUse" />
		<filter id="E">
			<feGaussianBlur stdDeviation="2.451" />
		</filter>
		<filter id="G" width="1.039" height="1.948" x="-.02" y="-.474">
			<feGaussianBlur stdDeviation="2.161" />
		</filter>
		<filter id="H">
			<feGaussianBlur stdDeviation="2.392" />
		</filter>
		<filter id="p">
			<feGaussianBlur stdDeviation=".547" />
		</filter>
		<filter id="r">
			<feGaussianBlur stdDeviation=".238" />
		</filter>
		<filter id="q">
			<feGaussianBlur stdDeviation=".796" />
		</filter>
		<filter id="I" width="1.025" height="1.498" x="-.012" y="-.249">
			<feGaussianBlur stdDeviation=".221" />
		</filter>
		<filter id="K">
			<feGaussianBlur stdDeviation=".165" />
		</filter>
	</defs>
	<path fill="url(#s)" fill-rule="evenodd" d="m656.388 407.954 2.29-13.222-20.063-176.408c-4.908-11.789-9.06-25.593-16.078-31.757 0 0-8.848-.232-15.347-.4-2.382-.06-3.04 8.986-3.04 8.986s-31.967 17.26-34.514 59.38l36.823-.4s10.016-.38 10.016 8.39c0 8.77 3.587 56.782 3.587 56.782-.164 17.189-20.43 27.165-35.128 4.655-10.602-16.236 2.764-25.441.663-28.189-2.325-3.04-8.964-6.418-14.536 8.377-5.38 14.284.473 36.227.473 36.227s7.725 35.804 13.572 39.458c5.846 3.654 70.55 28.12 71.282 28.12z" transform="translate(-51.436 -53.626)" />
	<path fill="none" d="M-2.95-8.478h620.663v478.043H-2.95z" />
</svg>
