<?xml version="1.0" encoding="UTF-8" standalone="no"?>
<!-- Created with Inkscape (http://www.inkscape.org/) -->
<svg xmlns:dc="http://purl.org/dc/elements/1.1/" xmlns:cc="http://web.resource.org/cc/" xmlns:rdf="http://www.w3.org/1999/02/22-rdf-syntax-ns#" xmlns:svg="http://www.w3.org/2000/svg" xmlns="http://www.w3.org/2000/svg" xmlns:xlink="http://www.w3.org/1999/xlink" xmlns:sodipodi="http://sodipodi.sourceforge.net/DTD/sodipodi-0.dtd" xmlns:inkscape="http://www.inkscape.org/namespaces/inkscape" width="614.76379" height="457.08661" id="svg2" sodipodi:version="0.32" inkscape:version="0.45.1" version="1.0" sodipodi:docbase="/Volumes/EXTERNAL/Uli's Art" sodipodi:docname="swissknife_no_brand.svg" inkscape:output_extension="org.inkscape.output.svg.inkscape">
	<defs id="defs4">
		<linearGradient id="linearGradient3568">
			<stop style="stop-color:#211c1c;stop-opacity:1;" offset="0" id="stop3570" />
			<stop style="stop-color:#8f8e9d;stop-opacity:1;" offset="1" id="stop3572" />
		</linearGradient>
		<linearGradient id="linearGradient7273">
			<stop style="stop-color:#bc0000;stop-opacity:1;" offset="0" id="stop7275" />
			<stop id="stop7281" offset="0.5" style="stop-color:#ff2828;stop-opacity:1;" />
			<stop style="stop-color:#9f0b0b;stop-opacity:1;" offset="1" id="stop7277" />
		</linearGradient>
		<linearGradient id="linearGradient4931">
			<stop style="stop-color:#000000;stop-opacity:0.59183675;" offset="0" id="stop4933" />
			<stop style="stop-color:#000000;stop-opacity:0;" offset="1" id="stop4935" />
		</linearGradient>
		<linearGradient inkscape:collect="always" id="linearGradient4865">
			<stop style="stop-color:#000000;stop-opacity:1;" offset="0" id="stop4867" />
			<stop style="stop-color:#000000;stop-opacity:0;" offset="1" id="stop4869" />
		</linearGradient>
		<linearGradient id="linearGradient4851">
			<stop style="stop-color:#f9f9f9;stop-opacity:1;" offset="0" id="stop4853" />
			<stop id="stop4859" offset="0.6891892" style="stop-color:#867979;stop-opacity:1;" />
			<stop style="stop-color:#bdafaf;stop-opacity:1;" offset="0.75" id="stop4861" />
			<stop style="stop-color:#f9f9f9;stop-opacity:1;" offset="1" id="stop4855" />
		</linearGradient>
		<linearGradient id="linearGradient4700">
			<stop style="stop-color:#fbfbfb;stop-opacity:0.02040816;" offset="0" id="stop4702" />
			<stop id="stop4708" offset="0.45799854" style="stop-color:#fbfbfb;stop-opacity:1;" />
			<stop style="stop-color:#fbfbfb;stop-opacity:1;" offset="0.8918919" id="stop4710" />
			<stop style="stop-color:#fbfbfb;stop-opacity:0;" offset="1" id="stop4704" />
		</linearGradient>
		<linearGradient id="linearGradient4534">
			<stop style="stop-color:#ffffff;stop-opacity:1;" offset="0" id="stop4536" />
			<stop id="stop4610" offset="0.5" style="stop-color:#f55fee;stop-opacity:0.49803922;" />
			<stop style="stop-color:#f90606;stop-opacity:0.85714287;" offset="1" id="stop4538" />
		</linearGradient>
		<linearGradient inkscape:collect="always" id="linearGradient4406">
			<stop style="stop-color:#000000;stop-opacity:1;" offset="0" id="stop4408" />
			<stop style="stop-color:#000000;stop-opacity:0;" offset="1" id="stop4410" />
		</linearGradient>
		<linearGradient inkscape:collect="always" id="linearGradient4366">
			<stop style="stop-color:#000000;stop-opacity:1;" offset="0" id="stop4368" />
			<stop style="stop-color:#000000;stop-opacity:0;" offset="1" id="stop4370" />
		</linearGradient>
		<linearGradient id="linearGradient4268">
			<stop id="stop4270" offset="0" style="stop-color:#211c1c;stop-opacity:1;" />
			<stop id="stop4272" offset="1" style="stop-color:#49485a;stop-opacity:1;" />
		</linearGradient>
		<linearGradient id="linearGradient4252">
			<stop id="stop4254" offset="0" style="stop-color:#8887a8;stop-opacity:1;" />
			<stop style="stop-color:#cac5c5;stop-opacity:1;" offset="0.54054052" id="stop4258" />
			<stop id="stop4256" offset="1" style="stop-color:#e1d8d8;stop-opacity:1;" />
		</linearGradient>
		<linearGradient id="linearGradient4212">
			<stop style="stop-color:#b3b3b3;stop-opacity:1;" offset="0" id="stop4214" />
			<stop style="stop-color:#e1d8d8;stop-opacity:1;" offset="1" id="stop4216" />
		</linearGradient>
		<linearGradient inkscape:collect="always" xlink:href="#linearGradient4212" id="linearGradient4226" x1="237.58882" y1="381.50577" x2="326.03027" y2="427.26495" gradientUnits="userSpaceOnUse" gradientTransform="translate(-160.16253,-62.436242)" />
		<linearGradient inkscape:collect="always" xlink:href="#linearGradient4212" id="linearGradient4234" x1="276.59085" y1="358.25342" x2="523.17065" y2="358.25342" gradientUnits="userSpaceOnUse" gradientTransform="translate(-160.16253,-62.436242)" />
		<linearGradient inkscape:collect="always" xlink:href="#linearGradient4212" id="linearGradient4242" x1="458.02823" y1="301.52386" x2="796.23376" y2="301.52386" gradientUnits="userSpaceOnUse" gradientTransform="translate(-160.16253,-62.436242)" />
		<linearGradient inkscape:collect="always" xlink:href="#linearGradient4252" id="linearGradient4250" x1="775.88141" y1="243.04121" x2="783.83466" y2="470.89011" gradientUnits="userSpaceOnUse" gradientTransform="translate(-160.16253,-62.436242)" />
		<linearGradient inkscape:collect="always" xlink:href="#linearGradient4268" id="linearGradient4266" x1="790.49274" y1="330.37366" x2="799.12848" y2="328.61926" gradientUnits="userSpaceOnUse" gradientTransform="translate(-160.16253,-62.436242)" />
		<linearGradient inkscape:collect="always" xlink:href="#linearGradient3568" id="linearGradient4290" x1="574.04352" y1="210.54903" x2="579.45374" y2="205.87065" gradientUnits="userSpaceOnUse" gradientTransform="translate(-160.16253,-62.436242)" />
		<linearGradient inkscape:collect="always" xlink:href="#linearGradient3568" id="linearGradient4298" x1="254.19136" y1="311.3454" x2="261.03802" y2="311.25137" gradientUnits="userSpaceOnUse" gradientTransform="translate(-160.16253,-62.436242)" />
		<linearGradient inkscape:collect="always" xlink:href="#linearGradient4268" id="linearGradient4306" x1="237.58882" y1="381.50577" x2="346.51077" y2="273.12357" gradientUnits="userSpaceOnUse" gradientTransform="translate(-160.16253,-62.436242)" />
		<linearGradient inkscape:collect="always" xlink:href="#linearGradient4366" id="linearGradient4372" x1="277.09085" y1="358.25342" x2="522.67065" y2="358.25342" gradientUnits="userSpaceOnUse" gradientTransform="translate(-160.16253,-62.436242)" />
		<linearGradient inkscape:collect="always" xlink:href="#linearGradient4406" id="linearGradient4412" x1="250.71625" y1="312.77478" x2="267.79739" y2="317.45316" gradientUnits="userSpaceOnUse" gradientTransform="translate(-160.16253,-62.436242)" />
		<linearGradient inkscape:collect="always" xlink:href="#linearGradient4268" id="linearGradient4465" x1="458.52823" y1="301.52386" x2="795.73376" y2="301.52386" gradientUnits="userSpaceOnUse" gradientTransform="translate(-160.16253,-62.436242)" />
		<linearGradient inkscape:collect="always" xlink:href="#linearGradient4268" id="linearGradient4495" x1="267.95831" y1="492.33478" x2="668.66248" y2="562.64209" gradientUnits="userSpaceOnUse" gradientTransform="matrix(1.00433,0,0,0.9999753,-163.71023,-62.424087)" />
		<linearGradient inkscape:collect="always" xlink:href="#linearGradient4268" id="linearGradient4503" x1="234.11913" y1="498.33478" x2="418.81046" y2="568.64209" gradientUnits="userSpaceOnUse" gradientTransform="matrix(1.0087274,0,0,0.9999505,-167.27372,-62.411568)" />
		<linearGradient inkscape:collect="always" xlink:href="#linearGradient4252" id="linearGradient4519" x1="526.92468" y1="582.97546" x2="819.73029" y2="492.33478" gradientUnits="userSpaceOnUse" gradientTransform="matrix(1.00433,0,0,0.9999753,-163.71023,-62.424087)" />
		<linearGradient inkscape:collect="always" xlink:href="#linearGradient4252" id="linearGradient4527" x1="234.91412" y1="498.33478" x2="814.41748" y2="498.33478" gradientUnits="userSpaceOnUse" gradientTransform="matrix(1.0087274,0,0,0.9999505,-167.27372,-62.411568)" />
		<linearGradient inkscape:collect="always" xlink:href="#linearGradient4534" id="linearGradient4548" x1="805.21875" y1="472.80902" x2="579.39148" y2="518.97461" gradientUnits="userSpaceOnUse" />
		<filter inkscape:collect="always" id="filter4636">
			<feGaussianBlur inkscape:collect="always" stdDeviation="2.450664" id="feGaussianBlur4638" />
		</filter>
		<filter inkscape:collect="always" x="-0.019650035" width="1.0393001" y="-0.47404543" height="1.9480909" id="filter4696">
			<feGaussianBlur inkscape:collect="always" stdDeviation="2.1608703" id="feGaussianBlur4698" />
		</filter>
		<linearGradient inkscape:collect="always" xlink:href="#linearGradient4700" id="linearGradient4706" x1="420.55673" y1="538.73798" x2="792.677" y2="538.73798" gradientUnits="userSpaceOnUse" />
		<filter inkscape:collect="always" id="filter4764">
			<feGaussianBlur inkscape:collect="always" stdDeviation="2.3919294" id="feGaussianBlur4766" />
		</filter>
		<linearGradient inkscape:collect="always" xlink:href="#linearGradient4851" id="linearGradient4857" x1="292.56198" y1="503.91336" x2="336.29391" y2="455.78345" gradientUnits="userSpaceOnUse" />
		<radialGradient inkscape:collect="always" xlink:href="#linearGradient4865" id="radialGradient4871" cx="327.3475" cy="473.49496" fx="327.3475" fy="473.49496" r="25.115959" gradientTransform="matrix(1,0,0,1.0005552,0,-0.2658324)" gradientUnits="userSpaceOnUse" />
		<linearGradient inkscape:collect="always" xlink:href="#linearGradient4851" id="linearGradient4874" gradientUnits="userSpaceOnUse" x1="292.56198" y1="503.91336" x2="336.29391" y2="455.78345" />
		<radialGradient inkscape:collect="always" xlink:href="#linearGradient4865" id="radialGradient4876" gradientUnits="userSpaceOnUse" gradientTransform="matrix(1,0,0,1.0005552,0,-0.2658324)" cx="327.3475" cy="473.49496" fx="327.3475" fy="473.49496" r="25.115959" />
		<linearGradient inkscape:collect="always" xlink:href="#linearGradient4851" id="linearGradient4889" gradientUnits="userSpaceOnUse" x1="292.56198" y1="503.91336" x2="336.29391" y2="455.78345" gradientTransform="translate(-130.26223,-39.757454)" />
		<linearGradient inkscape:collect="always" xlink:href="#linearGradient4851" id="linearGradient4906" gradientUnits="userSpaceOnUse" gradientTransform="translate(-123.47438,-42.666536)" x1="292.56198" y1="503.91336" x2="336.29391" y2="455.78345" />
		<linearGradient inkscape:collect="always" xlink:href="#linearGradient4851" id="linearGradient4908" gradientUnits="userSpaceOnUse" gradientTransform="translate(-123.47438,-42.666536)" x1="292.56198" y1="503.91336" x2="336.29391" y2="455.78345" />
		<linearGradient inkscape:collect="always" xlink:href="#linearGradient4851" id="linearGradient4910" gradientUnits="userSpaceOnUse" gradientTransform="translate(-123.47438,-42.666536)" x1="292.56198" y1="503.91336" x2="336.29391" y2="455.78345" />
		<linearGradient inkscape:collect="always" xlink:href="#linearGradient4851" id="linearGradient4912" gradientUnits="userSpaceOnUse" gradientTransform="translate(-123.47438,-42.666536)" x1="292.56198" y1="503.91336" x2="336.29391" y2="455.78345" />
		<linearGradient inkscape:collect="always" xlink:href="#linearGradient4851" id="linearGradient4914" gradientUnits="userSpaceOnUse" gradientTransform="translate(-123.47438,-42.666536)" x1="292.56198" y1="503.91336" x2="336.29391" y2="455.78345" />
		<linearGradient inkscape:collect="always" xlink:href="#linearGradient4851" id="linearGradient4919" gradientUnits="userSpaceOnUse" gradientTransform="translate(-123.47438,-42.666536)" x1="292.56198" y1="503.91336" x2="336.29391" y2="455.78345" />
		<linearGradient inkscape:collect="always" xlink:href="#linearGradient4851" id="linearGradient4922" gradientUnits="userSpaceOnUse" gradientTransform="translate(-123.47438,-42.666536)" x1="292.56198" y1="503.91336" x2="336.29391" y2="455.78345" />
		<linearGradient inkscape:collect="always" xlink:href="#linearGradient4851" id="linearGradient4925" gradientUnits="userSpaceOnUse" gradientTransform="translate(-123.47438,-42.666536)" x1="292.56198" y1="503.91336" x2="336.29391" y2="455.78345" />
		<linearGradient inkscape:collect="always" xlink:href="#linearGradient4851" id="linearGradient4928" gradientUnits="userSpaceOnUse" gradientTransform="translate(-123.47438,-42.666536)" x1="292.56198" y1="503.91336" x2="336.29391" y2="455.78345" />
		<radialGradient inkscape:collect="always" xlink:href="#linearGradient4931" id="radialGradient4937" cx="209.55914" cy="417.71228" fx="209.55914" fy="417.71228" r="25.109375" gradientTransform="matrix(1,0,0,1.0006223,0,-0.2713908)" gradientUnits="userSpaceOnUse" />
		<linearGradient inkscape:collect="always" xlink:href="#linearGradient4851" id="linearGradient4942" gradientUnits="userSpaceOnUse" gradientTransform="translate(-12.54205,-4.9687529)" x1="292.56198" y1="503.91336" x2="336.29391" y2="455.78345" />
		<radialGradient inkscape:collect="always" xlink:href="#linearGradient4931" id="radialGradient4944" gradientUnits="userSpaceOnUse" gradientTransform="matrix(1,0,0,1.0006223,110.93233,37.426392)" cx="209.55914" cy="417.71228" fx="209.55914" fy="417.71228" r="25.109375" />
		<linearGradient inkscape:collect="always" xlink:href="#linearGradient4851" id="linearGradient4969" x1="161.00899" y1="447.25696" x2="189.22124" y2="413.03577" gradientUnits="userSpaceOnUse" gradientTransform="translate(145.60146,46.811999)" />
		<radialGradient inkscape:collect="always" xlink:href="#linearGradient4931" id="radialGradient4977" cx="177.375" cy="432.40625" fx="177.375" fy="432.40625" r="22.5" gradientUnits="userSpaceOnUse" gradientTransform="translate(145.60146,46.811999)" />
		<radialGradient inkscape:collect="always" xlink:href="#linearGradient4252" id="radialGradient7235" cx="86.773468" cy="563.61243" fx="86.773468" fy="563.61243" r="43.682991" gradientTransform="matrix(1,0,0,1.0054252,0,-3.0577107)" gradientUnits="userSpaceOnUse" />
		<radialGradient inkscape:collect="always" xlink:href="#linearGradient4252" id="radialGradient7241" gradientUnits="userSpaceOnUse" gradientTransform="matrix(1,0,0,1.0054252,0,-3.0577107)" cx="86.773468" cy="563.61243" fx="86.773468" fy="563.61243" r="43.682991" />
		<linearGradient inkscape:collect="always" xlink:href="#linearGradient4212" id="linearGradient2474" gradientUnits="userSpaceOnUse" gradientTransform="translate(125.02977,11.490414)" x1="89.97023" y1="474.99927" x2="225.1265" y2="474.99927" />
		<linearGradient inkscape:collect="always" xlink:href="#linearGradient4252" id="linearGradient2476" gradientUnits="userSpaceOnUse" gradientTransform="translate(1e-5,-4.979061)" x1="227.17104" y1="418.4425" x2="228.99908" y2="549.65625" />
		<linearGradient inkscape:collect="always" xlink:href="#linearGradient4366" id="linearGradient3462" x1="738.39911" y1="380.36481" x2="702.4646" y2="409.19095" gradientUnits="userSpaceOnUse" gradientTransform="translate(-160.16253,-62.436242)" />
		<filter inkscape:collect="always" id="filter3496">
			<feGaussianBlur inkscape:collect="always" stdDeviation="0.54694753" id="feGaussianBlur3498" />
		</filter>
		<filter inkscape:collect="always" id="filter3516">
			<feGaussianBlur inkscape:collect="always" stdDeviation="0.237759" id="feGaussianBlur3518" />
		</filter>
		<filter inkscape:collect="always" id="filter3554">
			<feGaussianBlur inkscape:collect="always" stdDeviation="0.79589523" id="feGaussianBlur3556" />
		</filter>
		<filter inkscape:collect="always" x="-0.01226365" width="1.0245273" y="-0.24914262" height="1.4982852" id="filter3564">
			<feGaussianBlur inkscape:collect="always" stdDeviation="0.22083902" id="feGaussianBlur3566" />
		</filter>
		<linearGradient inkscape:collect="always" xlink:href="#linearGradient4700" id="linearGradient3582" x1="331.66437" y1="386.05896" x2="341.94601" y2="386.05896" gradientUnits="userSpaceOnUse" gradientTransform="translate(-160.53284,-62.806548)" />
		<filter inkscape:collect="always" id="filter3592">
			<feGaussianBlur inkscape:collect="always" stdDeviation="0.16452531" id="feGaussianBlur3594" />
		</filter>
		<linearGradient inkscape:collect="always" xlink:href="#linearGradient4212" id="linearGradient3835" gradientUnits="userSpaceOnUse" gradientTransform="translate(-160.16253,-62.436242)" x1="458.02823" y1="301.52386" x2="796.23376" y2="301.52386" />
		<linearGradient inkscape:collect="always" xlink:href="#linearGradient4268" id="linearGradient3837" gradientUnits="userSpaceOnUse" gradientTransform="translate(-160.16253,-62.436242)" x1="458.52823" y1="301.52386" x2="795.73376" y2="301.52386" />
		<linearGradient inkscape:collect="always" xlink:href="#linearGradient4212" id="linearGradient3839" gradientUnits="userSpaceOnUse" gradientTransform="translate(-160.16253,-62.436242)" x1="276.59085" y1="358.25342" x2="523.17065" y2="358.25342" />
		<linearGradient inkscape:collect="always" xlink:href="#linearGradient4366" id="linearGradient3841" gradientUnits="userSpaceOnUse" gradientTransform="translate(-160.16253,-62.436242)" x1="277.09085" y1="358.25342" x2="522.67065" y2="358.25342" />
		<linearGradient inkscape:collect="always" xlink:href="#linearGradient4212" id="linearGradient3843" gradientUnits="userSpaceOnUse" gradientTransform="translate(-160.16253,-62.436242)" x1="237.58882" y1="381.50577" x2="326.03027" y2="427.26495" />
		<linearGradient inkscape:collect="always" xlink:href="#linearGradient4268" id="linearGradient3845" gradientUnits="userSpaceOnUse" gradientTransform="translate(-160.16253,-62.436242)" x1="237.58882" y1="381.50577" x2="346.51077" y2="273.12357" />
		<linearGradient inkscape:collect="always" xlink:href="#linearGradient4366" id="linearGradient3847" gradientUnits="userSpaceOnUse" gradientTransform="translate(-160.16253,-62.436242)" x1="738.39911" y1="380.36481" x2="702.4646" y2="409.19095" />
		<linearGradient inkscape:collect="always" xlink:href="#linearGradient4252" id="linearGradient3849" gradientUnits="userSpaceOnUse" gradientTransform="translate(-160.16253,-62.436242)" x1="775.88141" y1="243.04121" x2="783.83466" y2="470.89011" />
		<linearGradient inkscape:collect="always" xlink:href="#linearGradient3568" id="linearGradient3851" gradientUnits="userSpaceOnUse" gradientTransform="translate(-160.16253,-62.436242)" x1="254.19136" y1="311.3454" x2="261.03802" y2="311.25137" />
		<linearGradient inkscape:collect="always" xlink:href="#linearGradient4406" id="linearGradient3853" gradientUnits="userSpaceOnUse" gradientTransform="translate(-160.16253,-62.436242)" x1="250.71625" y1="312.77478" x2="267.79739" y2="317.45316" />
		<linearGradient inkscape:collect="always" xlink:href="#linearGradient3568" id="linearGradient3855" gradientUnits="userSpaceOnUse" gradientTransform="translate(-160.16253,-62.436242)" x1="574.04352" y1="210.54903" x2="579.45374" y2="205.87065" />
		<linearGradient inkscape:collect="always" xlink:href="#linearGradient4268" id="linearGradient3857" gradientUnits="userSpaceOnUse" gradientTransform="translate(-160.16253,-62.436242)" x1="790.49274" y1="330.37366" x2="799.12848" y2="328.61926" />
		<linearGradient inkscape:collect="always" xlink:href="#linearGradient4268" id="linearGradient3859" gradientUnits="userSpaceOnUse" gradientTransform="matrix(1.0087274,0,0,0.9999505,-167.27372,-62.411568)" x1="234.11913" y1="498.33478" x2="418.81046" y2="568.64209" />
		<linearGradient inkscape:collect="always" xlink:href="#linearGradient4252" id="linearGradient3861" gradientUnits="userSpaceOnUse" gradientTransform="matrix(1.0087274,0,0,0.9999505,-167.27372,-62.411568)" x1="234.91412" y1="498.33478" x2="814.41748" y2="498.33478" />
		<linearGradient inkscape:collect="always" xlink:href="#linearGradient4212" id="linearGradient3863" gradientUnits="userSpaceOnUse" gradientTransform="translate(125.02977,11.490414)" x1="89.97023" y1="474.99927" x2="225.1265" y2="474.99927" />
		<linearGradient inkscape:collect="always" xlink:href="#linearGradient4252" id="linearGradient3865" gradientUnits="userSpaceOnUse" gradientTransform="translate(1e-5,-4.979061)" x1="227.17104" y1="418.4425" x2="228.99908" y2="549.65625" />
		<linearGradient inkscape:collect="always" xlink:href="#linearGradient4268" id="linearGradient3867" gradientUnits="userSpaceOnUse" gradientTransform="matrix(1.00433,0,0,0.9999753,-163.71023,-62.424087)" x1="267.95831" y1="492.33478" x2="668.66248" y2="562.64209" />
		<linearGradient inkscape:collect="always" xlink:href="#linearGradient4252" id="linearGradient3869" gradientUnits="userSpaceOnUse" gradientTransform="matrix(1.00433,0,0,0.9999753,-163.71023,-62.424087)" x1="526.92468" y1="582.97546" x2="819.73029" y2="492.33478" />
		<linearGradient inkscape:collect="always" xlink:href="#linearGradient4534" id="linearGradient3871" gradientUnits="userSpaceOnUse" x1="805.21875" y1="472.80902" x2="579.39148" y2="518.97461" />
		<linearGradient inkscape:collect="always" xlink:href="#linearGradient4700" id="linearGradient3873" gradientUnits="userSpaceOnUse" x1="420.55673" y1="538.73798" x2="792.677" y2="538.73798" />
		<linearGradient inkscape:collect="always" xlink:href="#linearGradient4700" id="linearGradient3875" gradientUnits="userSpaceOnUse" gradientTransform="translate(-160.53284,-62.806548)" x1="331.66437" y1="386.05896" x2="341.94601" y2="386.05896" />
	</defs>
	<namedview id="base" pagecolor="#ffffff" bordercolor="#666666" borderopacity="1.0" gridtolerance="10000" guidetolerance="10" objecttolerance="10" inkscape:pageopacity="0.0" inkscape:pageshadow="2" inkscape:zoom="0.72159208" inkscape:cx="467.74443" inkscape:cy="232.09994" inkscape:document-units="px" inkscape:current-layer="layer2" width="173.5mm" height="129mm" showguides="true" inkscape:guide-bbox="true" inkscape:window-width="976" inkscape:window-height="679" inkscape:window-x="4" inkscape:window-y="22" />
	<metadata id="metadata7">
		<RDF>
			<Work rdf:about="">
				<format>
					image/svg+xml
				</format>
				<type rdf:resource="http://purl.org/dc/dcmitype/StillImage" />
			</Work>
		</RDF>
	</metadata>
	<g inkscape:label="Layer 1" inkscape:groupmode="layer" id="layer1" style="display:inline" />
	<g inkscape:groupmode="layer" id="layer2" inkscape:label="Linework" style="display:inline">
		<g id="g3808" transform="translate(-51.435566,-53.626434)">
			<path sodipodi:nodetypes="cccsccccsc" id="path4184" d="M 515.83332,353.66714 L 344.75375,158.00831 C 344.75375,158.00831 298.80872,96.847838 298.36569,58.987628 C 313.4809,55.834278 391.36935,90.543148 419.68833,127.67765 C 438.89785,152.86698 635.57126,391.73281 635.57126,391.73281 L 549.93175,419.38724 L 528.52187,372.10709 L 528.81556,367.94039 C 529.49857,365.44754 531.75714,362.90934 530.46759,361.01617 C 528.82773,358.60875 523.4148,355.24642 515.83332,353.66714 z " style="fill:url(#linearGradient3835);fill-opacity:1;fill-rule:evenodd;stroke:url(#linearGradient3837);stroke-width:1px;stroke-linecap:butt;stroke-linejoin:miter;stroke-opacity:1" />
			<path sodipodi:nodetypes="ccsccc" id="path4182" d="M 257.81056,256.0081 C 302.90759,223.63209 338.85811,225.31899 362.50812,227.00589 C 362.50812,227.00589 356.40805,264.98258 319.22701,290.12835 C 284.14594,313.8539 213.23201,365.37927 213.23201,365.37927 L 116.92832,361.62318 L 257.81056,256.0081 z " style="fill:url(#linearGradient3839);fill-opacity:1;fill-rule:evenodd;stroke:url(#linearGradient3841);stroke-width:1px;stroke-linecap:butt;stroke-linejoin:miter;stroke-opacity:1" />
			<path sodipodi:nodetypes="ccscsccsssscsssscccc" id="path4180" d="M 89.855586,377.95831 L 83.393876,375.47304 C 83.393876,375.47304 77.926286,375.97009 77.926286,369.50839 C 77.926286,363.04669 89.855586,206.47471 89.855586,206.47471 C 89.855586,206.47471 100.79077,170.68683 103.27604,165.21923 C 105.76131,159.75164 113.73568,162.21541 113.73568,162.21541 L 144.03446,168.20156 C 144.03446,168.20156 147.51384,169.19566 149.005,177.14853 C 150.49616,185.10139 153.47849,206.47471 152.98143,210.45114 C 152.48438,214.42757 148.40183,219.1412 146.41361,221.62647 C 144.4254,224.11174 118.93192,260.08635 125.64347,282.52395 C 133.97221,310.36803 163.70434,311.99964 166.40189,311.35308 C 166.40189,311.35308 171.85272,309.66645 170.83069,301.50136 C 169.89038,293.98908 181.01167,301.9488 180.96724,307.90721 C 180.9299,312.91529 184.11216,330.33049 177.23096,330.09034 C 170.69722,329.86231 166.51917,329.94513 164.53095,336.40683 C 162.54274,342.86853 172.86359,345.6498 172.86359,345.6498 L 166.75932,361.05847 L 156.95786,382.43179 L 89.855586,377.95831 z " style="fill:url(#linearGradient3843);fill-opacity:1;fill-rule:evenodd;stroke:url(#linearGradient3845);stroke-width:1px;stroke-linecap:butt;stroke-linejoin:miter;stroke-opacity:1" />
			<path sodipodi:nodetypes="cccc" style="fill:url(#linearGradient3847);fill-opacity:1;fill-rule:evenodd;stroke:none;stroke-width:1px;stroke-linecap:butt;stroke-linejoin:miter;stroke-opacity:1;filter:url(#filter3496)" d="M 576.11447,316.63355 L 533.06801,354.1781 L 579.75338,320.48531 L 576.11447,316.63355 z " id="path3454" />
			<path sodipodi:nodetypes="ccccccc" id="path3520" d="M 567.7545,312.81971 L 564.57682,329.84303 L 565.7117,340.28399 L 571.45658,373.79093 L 584.32386,374.78458 L 572.97499,314.40855 L 567.7545,312.81971 z " style="opacity:0.49207794;fill:#000000;fill-opacity:1;fill-rule:evenodd;stroke:none;stroke-width:1px;stroke-linecap:butt;stroke-linejoin:miter;stroke-opacity:1;filter:url(#filter3554)" />
			<path id="path2483" d="M 531.43809,361.84686 L 580.9192,319.85601 L 527.80645,357.98824 L 531.43809,361.84686 z " style="fill:#000000;fill-opacity:0.53289472;fill-rule:evenodd;stroke:none;stroke-width:1px;stroke-linecap:butt;stroke-linejoin:miter;stroke-opacity:1;filter:url(#filter3516)" />
			<path sodipodi:nodetypes="ccccscccscssscsc" id="path4186" d="M 656.3876,407.95388 L 658.67831,394.73171 L 638.61475,218.32357 C 633.70661,206.535 629.55417,192.73124 622.53689,186.56703 C 622.53689,186.56703 613.6894,186.33503 607.18985,186.16785 C 604.80825,186.10659 604.14991,195.15254 604.14991,195.15254 C 604.14991,195.15254 572.18336,212.41208 569.63595,254.53253 L 606.45903,254.13335 C 606.45903,254.13335 616.47545,253.75259 616.47545,262.52233 C 616.47545,271.29207 620.06196,319.30457 620.06196,319.30457 C 619.89776,336.49351 599.63245,346.46974 584.93386,323.95964 C 574.33219,307.72376 587.6982,298.51882 585.59713,295.7712 C 583.27205,292.73065 576.63285,289.3525 571.06073,304.14789 C 565.68097,318.4325 571.5336,340.37528 571.5336,340.37528 C 571.5336,340.37528 579.25933,376.17892 585.10582,379.83297 C 590.95232,383.48703 655.65679,407.95388 656.3876,407.95388 z " style="fill:url(#linearGradient3849);fill-opacity:1;fill-rule:evenodd;stroke:none;stroke-width:1px;stroke-linecap:butt;stroke-linejoin:miter;stroke-opacity:1" />
			<path id="path4414" d="M 152.80622,209.28251 C 151.91291,213.06915 148.25296,217.31002 146.39997,219.62626 C 144.56452,221.92058 122.71901,252.74853 124.64997,275.12626 C 126.36125,253.60606 144.72401,227.72121 146.39997,225.62626 C 148.38819,223.14099 152.49668,218.41518 152.99372,214.43876 C 153.10755,213.52812 152.99765,211.64779 152.80622,209.28251 z M 181.55622,320.97001 C 181.26462,325.01406 180.20701,328.19843 177.24372,328.09501 C 170.70998,327.86698 166.51319,327.94581 164.52497,334.40751 C 163.99554,336.12816 164.36108,337.56682 165.14997,338.78251 C 167.32521,333.96217 171.32251,333.88836 177.24372,334.09501 C 181.59619,334.24691 181.89472,327.33764 181.55622,320.97001 z M 170.77497,348.90751 L 166.74372,359.06376 L 156.96247,380.43876 L 89.868716,375.97001 L 83.399966,373.47001 C 83.399966,373.47002 79.104726,373.85676 78.118716,369.47001 C 77.995846,371.49554 77.931216,373.01921 77.931216,373.50126 C 77.931216,379.96296 83.399966,379.47002 83.399966,379.47001 L 89.868716,381.97001 L 156.96247,386.43876 L 166.74372,365.06376 L 172.86872,349.65751 C 172.86872,349.65751 171.95879,349.39712 170.77497,348.90751 z " style="fill:#241c1c;fill-opacity:1;fill-rule:evenodd;stroke:none;stroke-width:1px;stroke-linecap:butt;stroke-linejoin:miter;stroke-opacity:1" />
			<path sodipodi:nodetypes="ccccccccscccscccscsccscscc" id="path4452" d="M 605.76589,186.15229 C 603.3843,186.09103 602.73464,195.15229 602.73464,195.15229 C 602.73463,195.1523 570.7508,212.40684 568.20339,254.52729 L 570.20339,254.49604 C 572.76487,212.39855 604.73463,195.1523 604.73464,195.15229 C 604.73464,195.15229 605.32631,186.78862 607.48464,186.18354 C 606.71357,186.16361 606.49379,186.17101 605.76589,186.15229 z M 605.64089,254.12104 C 607.76569,254.1982 615.04714,255.03037 615.04714,262.52729 C 615.04717,271.29704 618.64089,319.30854 618.64089,319.30854 C 618.54864,328.96499 612.12008,336.34198 603.89089,336.96479 C 613.04681,337.47712 620.54134,329.72917 620.64089,319.30854 C 620.64089,319.30854 617.04717,271.29704 617.04714,262.52729 C 617.04714,253.75755 607.04717,254.12105 607.04714,254.12104 L 605.64089,254.12104 z M 579.07839,293.15229 C 576.22655,293.26884 572.24278,295.82988 569.10846,304.15229 C 563.72868,318.43689 568.51236,340.50415 568.51236,340.50415 C 570.67794,346.22774 577.14287,380.31136 582.98936,383.96541 C 588.83589,387.61946 654.22258,407.96479 654.95339,407.96479 L 655.07839,407.30854 C 645.95484,404.06775 591.06669,383.21135 585.67214,379.83979 C 579.82565,376.18574 572.10965,340.37104 572.10964,340.37104 C 572.10964,340.37104 566.26111,318.43689 571.64089,304.15229 C 574.49468,296.57476 577.60646,293.77642 580.29714,293.24604 C 579.90875,293.16796 579.49645,293.13521 579.07839,293.15229 z " style="fill:#333333;fill-opacity:1;fill-rule:evenodd;stroke:none;stroke-width:1px;stroke-linecap:butt;stroke-linejoin:miter;stroke-opacity:1" />
			<path sodipodi:nodetypes="ccsccsc" id="rect2222" d="M 160.36464,368.38627 L 573.898,386.27177 C 619.38637,386.27177 654.25495,403.08747 654.25495,449.52411 C 654.25495,495.96076 604.49415,507.41082 559.00577,507.41082 L 146.34844,502.04516 C 100.86005,502.04516 74.751596,480.75809 74.751596,434.32144 C 74.751596,387.88479 114.87627,368.38627 160.36464,368.38627 z " style="fill:#ff0000;fill-opacity:1;stroke:none;stroke-width:0.98980945;stroke-opacity:1" />
			<path sodipodi:nodetypes="ccc" id="path4188" d="M 99.266056,198.5659 C 116.34778,243.40541 101.93508,282.90689 90.725196,302.12382 C 89.123796,264.22375 99.266056,197.49829 99.266056,198.5659 z " style="fill:url(#linearGradient3851);fill-opacity:1;fill-rule:evenodd;stroke:url(#linearGradient3853);stroke-width:1px;stroke-linecap:butt;stroke-linejoin:miter;stroke-opacity:1" />
			<path style="fill:url(#linearGradient3855);fill-opacity:1;fill-rule:evenodd;stroke:none;stroke-width:1px;stroke-linecap:butt;stroke-linejoin:miter;stroke-opacity:1" d="M 457.19699,181.90605 C 416.55091,160.93603 395.50853,124.95215 387.37023,104.95533 C 416.15317,129.66407 457.97697,182.63503 457.19699,181.90605 z " id="path4190" sodipodi:nodetypes="ccc" />
			<path inkscape:transform-center-x="-5.816488" inkscape:transform-center-y="45.440089" sodipodi:nodetypes="ccc" id="path4210" d="M 643.34269,311.16 C 623.00311,276.06756 625.69585,243.06866 630.60645,224.70385 C 640.96011,256.63006 643.58748,312.0678 643.34269,311.16 z " style="fill:url(#linearGradient3857);fill-opacity:1;fill-rule:evenodd;stroke:none;stroke-width:0.96249902px;stroke-linecap:butt;stroke-linejoin:miter;stroke-opacity:1" />
			<path style="fill:url(#linearGradient3859);fill-opacity:1;stroke:url(#linearGradient3861);stroke-width:1.59688365;stroke-miterlimit:4;stroke-dasharray:none;stroke-opacity:1" d="M 156.05082,366.38971 L 573.19325,384.27433 C 619.07862,384.27433 654.25151,401.08919 654.25151,447.52353 C 654.25151,493.95789 604.05643,505.40738 558.17105,505.40738 L 141.9123,500.04198 C 96.026906,500.04198 69.690606,478.75597 69.690606,432.32162 C 69.690606,385.88727 110.16546,366.38971 156.05082,366.38971 z " id="path4469" sodipodi:nodetypes="ccsccsc" />
			<g transform="translate(-160.16253,-62.436242)" id="g2479">
				<path style="fill:#1a1a1a;fill-opacity:1;stroke:none;stroke-width:0.97304326;stroke-opacity:1" d="M 232.8125,518.375 C 226.02736,518.70753 221.96609,526.52279 225.14298,532.50188 C 226.18342,540.67074 227.31745,531.62112 228.78125,528.4375 C 231.16342,523.31911 239.5922,526.01058 238.71591,531.58961 C 238.48806,540.58353 240.52568,536.23618 242.78125,530.46875 C 245.3463,524.14788 239.28868,517.52041 232.8125,518.375 z M 253.03125,525.46875 C 249.52727,534.29654 240.842,543.09679 230.59375,541.28125 C 223.08916,540.06148 220.59898,532.26571 217.31994,526.7052 C 212.7691,536.75366 223.19493,550.45517 234.75,548.90625 C 243.57776,547.6063 250.76203,540.65828 254.21875,532.65625 C 274.87146,546.63483 305.0341,546.1919 324.33887,530.26365 C 329.61751,524.69998 320.2806,528.01266 317.375,529.84375 C 297.05071,539.05682 272.05657,536.61341 254,523.375 C 253.67708,524.07292 253.35417,524.77083 253.03125,525.46875 z " id="path4796" sodipodi:nodetypes="ccccccccccccccc" />
				<path sodipodi:nodetypes="cczssccssccsssc" d="M 289.28126,428.80218 C 255.95446,428.80218 240.03731,489.83688 236.29845,491.25066 C 235.95341,498.53691 228.29371,507.88355 223.89769,512.53506 C 219.50167,517.18656 215.5,521.29148 215.5,527.64593 C 215.5,536.7776 222.70889,544.17721 231.59375,544.17718 C 235.23066,544.17718 238.58508,542.92672 241.28126,540.83343 C 245.96777,538.74569 249.91526,533.45121 252.84376,526.86468 C 262.97169,533.80461 275.60042,537.92717 289.28126,537.92718 C 322.60806,537.92718 349.65627,513.48305 349.65626,483.36468 C 349.65626,453.24631 322.60807,428.80219 289.28126,428.80218 z M 239.35693,527.94487 C 239.35693,531.83459 235.94546,534.99146 231.74205,534.99146 C 227.53864,534.99146 224.12718,531.83459 224.12718,527.94487 C 224.12718,524.05514 227.53864,520.89827 231.74205,520.89827 C 235.94546,520.89827 239.35693,524.05514 239.35693,527.94487 z " style="fill:url(#linearGradient3863);fill-opacity:1;stroke:url(#linearGradient3865);stroke-opacity:1" id="path4801" />
			</g>
			<path sodipodi:nodetypes="ccsccsc" id="path4471" d="M 158.87733,360.39106 L 577.43475,378.27532 C 623.47576,378.27532 658.76796,395.08987 658.76796,441.52331 C 658.76796,487.95676 608.40261,499.40603 562.36159,499.40603 L 144.69085,494.04075 C 98.649816,494.04075 72.224166,472.75514 72.224166,426.32169 C 72.224166,379.88823 112.83632,360.39106 158.87733,360.39106 z " style="fill:url(#linearGradient3867);fill-opacity:1;fill-rule:evenodd;stroke:url(#linearGradient3869);stroke-width:1.59957433;stroke-miterlimit:4;stroke-dasharray:none;stroke-opacity:1" />
			<path style="fill:#bc0000;fill-opacity:1;stroke:none;stroke-opacity:1" d="M 160.64213,353.33204 L 582.76527,371.21622 C 629.19852,371.21622 664.79138,388.03069 664.79138,434.46393 C 664.79138,480.89718 613.99696,492.34639 567.56371,492.34639 L 146.33478,486.98113 C 99.901526,486.98113 73.250756,465.69562 73.250756,419.26237 C 73.250756,372.82913 114.20888,353.33204 160.64213,353.33204 z " id="path4467" sodipodi:nodetypes="ccsccsc" />
			<path transform="matrix(1.0087566,0,0,1,-158.75369,-67.227698)" d="M 320.4375,435.5625 C 300.1404,435.62036 282.01979,440.20309 270.625,447.78125 C 259.15768,455.40765 253.15625,464.28296 253.15625,481.6875 C 253.15625,501.12229 258.03854,511.39408 265.6875,518.21875 C 273.33646,525.04342 286.30276,529.65625 306.5,529.65625 C 306.58333,529.65572 306.66667,529.65572 306.75,529.65625 L 727.96875,535.03125 C 749.56234,535.03125 771.37215,531.93037 785.375,525.375 C 799.37785,518.81963 805.21875,512.91444 805.21875,496.90625 C 805.21875,478.73926 800.01642,470.86647 790.25,464.21875 C 780.48358,457.57103 763.76864,453.40625 742.9375,453.40625 C 742.65628,453.41225 742.37497,453.41225 742.09375,453.40625 L 320.4375,435.5625 z " id="path4532" style="opacity:0.66666667;fill:url(#linearGradient3871);fill-opacity:1;stroke:none;stroke-opacity:1;filter:url(#filter4636)" inkscape:original="M 320.8125 415.78125 C 274.37925 415.78125 233.40626 435.25426 233.40625 481.6875 C 233.40625 528.12075 260.06675 549.40626 306.5 549.40625 L 727.71875 554.78125 C 774.152 554.78125 824.96874 543.33949 824.96875 496.90625 C 824.96875 450.47301 789.37075 433.65624 742.9375 433.65625 L 320.8125 415.78125 z " inkscape:radius="-19.759876" sodipodi:type="inkscape:offset" />
			<path transform="matrix(1.7943416,0,0,0.9296117,-789.21546,-24.51542)" sodipodi:nodetypes="cs" id="path4658" d="M 528.55436,536.62505 C 639.8052,537.29527 758.7042,546.61422 791.477,533.76792" style="opacity:0.70440249;fill:none;fill-opacity:0.75;fill-rule:evenodd;stroke:url(#linearGradient3873);stroke-width:2.4000001;stroke-linecap:butt;stroke-linejoin:miter;stroke-miterlimit:4;stroke-dasharray:none;stroke-opacity:1;filter:url(#filter4696)" />
			<path sodipodi:nodetypes="cscscc" id="path4714" d="M 138.65779,361.50277 C 117.49709,362.03951 91.229686,379.79546 86.901326,402.33188 C 85.724416,408.45965 85.858026,413.07645 86.226066,419.77213 C 87.902376,390.66518 114.34448,359.62916 154.87493,363.71963 C 157.64974,363.99829 162.83234,361.58636 164.37806,361.6695 C 154.99249,362.25303 148.01786,361.50278 138.65779,361.50277 z " style="opacity:0.65408804;fill:#f9f9fa;fill-opacity:1;fill-rule:evenodd;stroke:none;stroke-width:2.4000001;stroke-miterlimit:4;stroke-opacity:1;filter:url(#filter4764)" />
			<path sodipodi:nodetypes="ccc" id="path3558" d="M 569.29045,253.20456 L 611.38332,252.9694 C 612.08879,251.08816 609.50207,255.32096 611.38332,252.73425" style="fill:none;fill-opacity:0.75;fill-rule:evenodd;stroke:#ffffff;stroke-width:1px;stroke-linecap:butt;stroke-linejoin:miter;stroke-opacity:1;filter:url(#filter3564)" />
			<path sodipodi:nodetypes="cc" id="path3574" d="M 180.88919,318.75847 C 181.32121,329.86765 175.82834,327.46066 171.63154,327.64581" style="fill:none;fill-opacity:0.75;fill-rule:evenodd;stroke:url(#linearGradient3875);stroke-width:1.5;stroke-linecap:butt;stroke-linejoin:miter;stroke-miterlimit:4;stroke-dasharray:none;stroke-opacity:1;filter:url(#filter3592)" />
			<rect y="45.148422" x="48.48592" height="478.04263" width="620.66309" id="rect2834" style="fill:none;fill-opacity:1;stroke:none" />
		</g>
	</g>
</svg>
